<svg width="24" height="24" viewBox="0 0 24 24" fill="none" xmlns="http://www.w3.org/2000/svg">
<path d="M2.41666 10.4167C2.3598 10.4188 2.30395 10.4324 2.2525 10.4567C2.20043 10.4788 2.15345 10.5114 2.11445 10.5524C2.07545 10.5933 2.04526 10.6419 2.02574 10.695C2.00622 10.7481 1.99779 10.8046 2.00096 10.8611C2.00412 10.9175 2.01883 10.9728 2.04416 11.0234L2.9925 13.0859C3.14166 13.4025 3.30916 13.5792 3.59333 13.5792C3.87833 13.5792 4.045 13.3959 4.19333 13.0859L5.02916 11.2642C5.03836 11.2403 5.05497 11.2199 5.07656 11.2061C5.09815 11.1923 5.1236 11.1858 5.14916 11.1875C5.18409 11.1882 5.21737 11.2025 5.24183 11.2275C5.2663 11.2524 5.28 11.2859 5.28 11.3209V13.0859C5.27466 13.1474 5.28218 13.2094 5.30207 13.2679C5.32197 13.3264 5.35381 13.3802 5.39558 13.4257C5.43734 13.4712 5.48812 13.5076 5.54468 13.5325C5.60125 13.5574 5.66237 13.5702 5.72416 13.5702C5.78596 13.5702 5.84708 13.5574 5.90364 13.5325C5.96021 13.5076 6.01098 13.4712 6.05275 13.4257C6.09451 13.3802 6.12636 13.3264 6.14625 13.2679C6.16615 13.2094 6.17367 13.1474 6.16833 13.0859V11.6442C6.16573 11.5821 6.17625 11.5201 6.19919 11.4624C6.22214 11.4046 6.25699 11.3523 6.30149 11.3089C6.34599 11.2655 6.39913 11.232 6.45746 11.2105C6.51578 11.189 6.57798 11.18 6.64 11.1842C6.7006 11.1816 6.76106 11.1918 6.81748 11.2141C6.87389 11.2364 6.925 11.2703 6.9675 11.3135C7.00999 11.3568 7.04293 11.4085 7.06417 11.4654C7.08542 11.5222 7.0945 11.5828 7.09083 11.6434V13.085C7.08351 13.1473 7.0895 13.2103 7.10838 13.2701C7.12726 13.3298 7.15862 13.3849 7.20037 13.4316C7.24213 13.4783 7.29332 13.5156 7.35058 13.5411C7.40784 13.5665 7.46984 13.5795 7.5325 13.5792C7.59511 13.579 7.657 13.5658 7.71419 13.5403C7.77138 13.5148 7.82261 13.4776 7.86459 13.4312C7.90657 13.3847 7.93837 13.33 7.95796 13.2705C7.97755 13.2111 7.98449 13.1482 7.97833 13.0859V11.6442C7.97575 11.5822 7.98623 11.5204 8.00907 11.4628C8.03192 11.4051 8.06662 11.3529 8.11094 11.3096C8.15525 11.2662 8.20819 11.2326 8.26631 11.211C8.32443 11.1894 8.38645 11.1803 8.44833 11.1842C8.50907 11.1814 8.56972 11.1914 8.62633 11.2136C8.68295 11.2358 8.73426 11.2696 8.77694 11.3129C8.81962 11.3562 8.85271 11.408 8.87405 11.4649C8.89539 11.5219 8.90452 11.5827 8.90083 11.6434V13.085C8.89353 13.1471 8.89947 13.21 8.91826 13.2697C8.93704 13.3293 8.96825 13.3843 9.00982 13.431C9.05139 13.4776 9.10238 13.515 9.15944 13.5405C9.21649 13.5661 9.27831 13.5793 9.34083 13.5792C9.4036 13.5796 9.46573 13.5666 9.52317 13.5413C9.58061 13.516 9.63205 13.4789 9.67414 13.4323C9.71623 13.3857 9.748 13.3308 9.7674 13.2711C9.78679 13.2114 9.79335 13.1483 9.78666 13.0859V11.445C9.78632 11.3068 9.7581 11.17 9.70369 11.0429C9.64928 10.9158 9.56979 10.8009 9.46998 10.7052C9.37017 10.6095 9.25209 10.535 9.1228 10.486C8.9935 10.437 8.85565 10.4145 8.7175 10.42C8.36018 10.4262 8.01936 10.5715 7.7675 10.825C7.66069 10.6875 7.52137 10.5788 7.36208 10.5085C7.2028 10.4383 7.02854 10.4087 6.855 10.4225C6.52009 10.453 6.20502 10.5947 5.96 10.825C5.86344 10.7041 5.74187 10.6056 5.60364 10.5361C5.46541 10.4666 5.31378 10.4279 5.15916 10.4225C4.94939 10.4141 4.74244 10.4731 4.56873 10.591C4.39503 10.7089 4.26373 10.8794 4.19416 11.0775L3.58666 12.5075L2.80916 10.6717L2.81833 10.6684C2.78441 10.5909 2.72794 10.5255 2.6563 10.4806C2.58465 10.4357 2.50115 10.4134 2.41666 10.4167ZM17.775 10.4667C17.7454 10.4671 17.7163 10.4734 17.6891 10.4851C17.662 10.4968 17.6375 10.5137 17.6169 10.5349C17.5963 10.5561 17.5801 10.5812 17.5692 10.6087C17.5583 10.6361 17.5529 10.6655 17.5533 10.695H17.555V13.3134C17.5506 13.3452 17.5531 13.3776 17.5623 13.4084C17.5715 13.4391 17.5872 13.4676 17.6084 13.4918C17.6295 13.516 17.6555 13.5354 17.6848 13.5487C17.714 13.562 17.7458 13.5689 17.7779 13.5689C17.81 13.5689 17.8418 13.562 17.871 13.5487C17.9003 13.5354 17.9263 13.516 17.9475 13.4918C17.9686 13.4676 17.9843 13.4391 17.9935 13.4084C18.0027 13.3776 18.0052 13.3452 18.0008 13.3134V12.295C18.0008 11.4309 18.4767 10.995 19.0592 10.9259C19.115 10.92 19.1665 10.8932 19.2033 10.8508C19.2401 10.8084 19.2595 10.7536 19.2575 10.6975C19.2588 10.668 19.2539 10.6384 19.2433 10.6108C19.2326 10.5832 19.2164 10.5581 19.1956 10.5371C19.1748 10.516 19.1498 10.4995 19.1224 10.4885C19.0949 10.4776 19.0654 10.4724 19.0358 10.4734C18.8127 10.489 18.5981 10.5657 18.4156 10.6951C18.2331 10.8244 18.0896 11.0014 18.0008 11.2067V10.695C18.0017 10.665 17.9965 10.6351 17.9855 10.6072C17.9745 10.5792 17.958 10.5538 17.9369 10.5324C17.9157 10.5111 17.8905 10.4942 17.8627 10.4829C17.8349 10.4716 17.805 10.4661 17.775 10.4667ZM12.1625 10.4734C12.1128 10.4765 12.0654 10.4959 12.0278 10.5286C11.9902 10.5613 11.9643 10.6054 11.9542 10.6542L11.1942 12.8434L10.4425 10.66C10.4311 10.608 10.4022 10.5614 10.3607 10.5281C10.3191 10.4947 10.2674 10.4766 10.2142 10.4767C10.1559 10.4758 10.0997 10.4978 10.0576 10.5381C10.0155 10.5783 9.99091 10.6335 9.98916 10.6917C9.99252 10.7329 10.0021 10.7733 10.0175 10.8117L10.9258 13.3425L10.9425 13.3367C10.9564 13.3927 10.9881 13.4427 11.0329 13.4791C11.0777 13.5154 11.1332 13.5363 11.1908 13.5384C11.2486 13.5381 11.3044 13.5179 11.3489 13.4811C11.3934 13.4444 11.4238 13.3933 11.435 13.3367L12.1875 11.1842L12.9342 13.3367C12.9453 13.3933 12.9757 13.4444 13.0202 13.4811C13.0647 13.5179 13.1206 13.5381 13.1783 13.5384H13.1933C13.2503 13.5354 13.3048 13.5142 13.3487 13.4779C13.3927 13.4415 13.4238 13.3921 13.4375 13.3367L14.3517 10.805C14.3666 10.7666 14.3758 10.7261 14.3792 10.685C14.3774 10.6281 14.3532 10.5743 14.3118 10.5352C14.2704 10.4962 14.2152 10.4751 14.1583 10.4767C14.1079 10.4764 14.0589 10.4936 14.0197 10.5254C13.9805 10.5571 13.9535 10.6015 13.9433 10.6509L13.1783 12.8425L12.425 10.6542C12.4123 10.6024 12.3825 10.5564 12.3405 10.5236C12.2985 10.4908 12.2466 10.4731 12.1933 10.4734H12.1725C12.1692 10.4733 12.1658 10.4733 12.1625 10.4734ZM20.6358 10.48C20.4412 10.4863 20.2498 10.5314 20.0729 10.6128C19.896 10.6942 19.7372 10.8102 19.6058 10.954C19.4745 11.0978 19.3733 11.2664 19.3082 11.4499C19.243 11.6334 19.2153 11.8281 19.2267 12.0225C19.2162 12.2217 19.2463 12.421 19.3152 12.6082C19.3841 12.7955 19.4904 12.9667 19.6276 13.1115C19.7648 13.2564 19.9301 13.3718 20.1133 13.4507C20.2965 13.5297 20.4938 13.5706 20.6933 13.5709L20.6867 13.5817C20.8924 13.5876 21.0972 13.5508 21.288 13.4735C21.4788 13.3961 21.6514 13.2801 21.795 13.1325C21.8158 13.1152 21.8327 13.0935 21.8445 13.0691C21.8563 13.0447 21.8627 13.018 21.8633 12.9909C21.8629 12.9545 21.852 12.919 21.832 12.8886C21.8119 12.8582 21.7836 12.8343 21.7503 12.8195C21.7171 12.8048 21.6803 12.7999 21.6443 12.8054C21.6084 12.811 21.5748 12.8268 21.5475 12.8509C21.4358 12.9614 21.3033 13.0489 21.1578 13.1082C21.0122 13.1676 20.8564 13.1976 20.6992 13.1967C20.4296 13.1974 20.1705 13.0925 19.9773 12.9045C19.7842 12.7165 19.6724 12.4603 19.6658 12.1909H21.795C21.8494 12.1906 21.9016 12.1689 21.94 12.1303C21.9784 12.0917 22 12.0395 22 11.985C22 11.1975 21.5058 10.48 20.6358 10.48ZM15.8492 10.4817C15.8052 10.4811 15.7613 10.4828 15.7175 10.4867C15.4088 10.473 15.1012 10.5315 14.8192 10.6575C14.782 10.6713 14.7502 10.6968 14.7287 10.7302C14.7072 10.7635 14.6972 10.8029 14.7 10.8425C14.7023 10.8933 14.7238 10.9412 14.7602 10.9766C14.7966 11.0121 14.8451 11.0324 14.8958 11.0334C14.9232 11.0317 14.9501 11.0249 14.975 11.0134C15.1928 10.9142 15.4309 10.868 15.67 10.8784C16.2458 10.8784 16.5617 11.1567 16.5617 11.6942V11.7984C16.2631 11.7118 15.9534 11.6696 15.6425 11.6734C14.8992 11.6734 14.3758 12.0067 14.3758 12.64L14.3733 12.6367C14.3733 13.25 14.9325 13.5675 15.49 13.5675C15.6984 13.5735 15.9052 13.5297 16.0933 13.4399C16.2814 13.35 16.4454 13.2167 16.5717 13.0509V13.3367C16.5713 13.3644 16.5766 13.392 16.5871 13.4176C16.5977 13.4433 16.6133 13.4665 16.6331 13.486C16.6529 13.5054 16.6764 13.5207 16.7022 13.5308C16.728 13.541 16.7556 13.5458 16.7833 13.545C16.812 13.5455 16.8404 13.5401 16.8669 13.5293C16.8934 13.5184 16.9175 13.5023 16.9376 13.4819C16.9577 13.4615 16.9734 13.4372 16.9839 13.4105C16.9943 13.3838 16.9992 13.3553 16.9983 13.3267V11.6742C17.0073 11.5151 16.9839 11.3559 16.9296 11.206C16.8753 11.0562 16.7913 10.919 16.6825 10.8025C16.4509 10.6012 16.156 10.4877 15.8492 10.4817ZM20.615 10.84C21.21 10.84 21.5192 11.3109 21.5642 11.8517H19.6658C19.6667 11.5942 19.7651 11.3466 19.9412 11.1587C20.1173 10.9709 20.3581 10.8575 20.615 10.84ZM15.7108 11.9917C16.009 11.992 16.3056 12.0349 16.5917 12.1192V12.4084C16.5917 12.8834 16.1425 13.2192 15.5917 13.2192C15.1875 13.2192 14.8383 13.0017 14.8383 12.625C14.8383 12.2359 15.1508 11.9917 15.7108 11.9917Z" fill="#607078"/>
</svg>
