<svg width="24" height="24" viewBox="0 0 24 24" fill="none" xmlns="http://www.w3.org/2000/svg">
<g clip-path="url(#clip0_1_1126)">
<path d="M12 2C6.4775 2 2 6.47667 2 12C2 17.5225 6.4775 22 12 22C17.5225 22 22 17.5225 22 12C22 6.47667 17.5225 2 12 2ZM12 20.7167C10.4292 20.7167 9.155 19.6667 9.155 18.3717H14.845C14.845 19.6658 13.5717 20.7167 12 20.7167ZM16.7 17.5958H7.3V15.8908H16.7V17.5958ZM16.6667 15.0142H7.32583C7.295 14.9783 7.26333 14.9425 7.23333 14.9058C6.27083 13.7383 6.04417 13.1283 5.825 12.5067C5.82083 12.4858 6.99167 12.7458 7.82083 12.9325C7.82083 12.9325 8.24833 13.0317 8.8725 13.145C8.2725 12.4425 7.91667 11.5492 7.91667 10.6367C7.91667 8.63167 9.45417 6.88 8.9 5.46417C9.44 5.50833 10.0167 6.60333 10.0558 8.31583C10.63 7.52333 10.87 6.07417 10.87 5.18667C10.87 4.2675 11.4758 3.19917 12.0817 3.1625C11.5417 4.05333 12.2217 4.81583 12.8267 6.70917C13.0533 7.42083 13.0242 8.6175 13.1992 9.37667C13.2575 7.8 13.5283 5.5 14.5283 4.70583C14.0875 5.70583 14.5942 6.9575 14.94 7.55917C15.4992 8.52917 15.8383 9.265 15.8383 10.6558C15.8351 11.5713 15.5074 12.4559 14.9133 13.1525C15.5733 13.0283 16.03 12.9167 16.03 12.9167L18.1742 12.4983C18.1742 12.4983 17.8633 13.78 16.6667 15.0142Z" fill="#E6522C"/>
</g>
<defs>
<clipPath id="clip0_1_1126">
<rect width="20" height="20" fill="white" transform="translate(2 2)"/>
</clipPath>
</defs>
</svg>
