<svg width="24" height="24" viewBox="0 0 24 24" fill="none" xmlns="http://www.w3.org/2000/svg">
<g clip-path="url(#clip0_1_1163)">
<path d="M13.6525 11.2317H15.4183C15.4593 11.2317 15.4986 11.2154 15.5277 11.1866C15.5567 11.1577 15.5731 11.1185 15.5733 11.0775V9.50499C15.5733 9.46388 15.557 9.42446 15.528 9.39539C15.4989 9.36632 15.4595 9.34999 15.4183 9.34999H13.6525C13.6116 9.34999 13.5724 9.36623 13.5435 9.39515C13.5146 9.42406 13.4983 9.46327 13.4983 9.50416V11.0775C13.4983 11.1625 13.5675 11.2317 13.6525 11.2317ZM11.1908 6.70666H12.9558C12.997 6.70666 13.0364 6.69033 13.0654 6.66126C13.0945 6.63219 13.1108 6.59277 13.1108 6.55166V4.97832C13.1106 4.93736 13.0942 4.89815 13.0652 4.86926C13.0361 4.84037 12.9968 4.82416 12.9558 4.82416H11.1908C11.15 4.82416 11.1107 4.8404 11.0818 4.86931C11.0529 4.89822 11.0367 4.93744 11.0367 4.97832V6.55166C11.0367 6.63666 11.105 6.70666 11.1908 6.70666ZM11.1908 8.96916H12.9558C12.9969 8.96894 13.0362 8.95254 13.0652 8.92352C13.0942 8.8945 13.1106 8.8552 13.1108 8.81416V7.24166C13.1106 7.20069 13.0942 7.16148 13.0652 7.13259C13.0361 7.10371 12.9968 7.08749 12.9558 7.08749H11.1908C11.15 7.08749 11.1107 7.10373 11.0818 7.13265C11.0529 7.16156 11.0367 7.20077 11.0367 7.24166V8.81416C11.0367 8.89916 11.105 8.96832 11.1908 8.96916ZM8.74918 8.96916H10.5158C10.5567 8.96872 10.5957 8.95219 10.6244 8.92317C10.6531 8.89415 10.6692 8.85498 10.6692 8.81416V7.24166C10.6692 7.20077 10.6529 7.16156 10.624 7.13265C10.5951 7.10373 10.5559 7.08749 10.515 7.08749H8.75001C8.70913 7.08749 8.66991 7.10373 8.641 7.13265C8.61209 7.16156 8.59585 7.20077 8.59585 7.24166V8.81416C8.59585 8.89916 8.66501 8.96832 8.75001 8.96916M6.28001 8.96916H8.04585C8.08681 8.96894 8.12602 8.95251 8.15491 8.92347C8.1838 8.89442 8.20002 8.85512 8.20001 8.81416V7.24166C8.20001 7.20077 8.18377 7.16156 8.15486 7.13265C8.12595 7.10373 8.08674 7.08749 8.04585 7.08749H6.28001C6.23905 7.08749 6.19975 7.10371 6.17071 7.13259C6.14166 7.16148 6.12523 7.20069 6.12501 7.24166V8.81416C6.12501 8.89916 6.19501 8.96832 6.28001 8.96916ZM11.1908 11.2317H12.9558C12.9968 11.2317 13.0361 11.2154 13.0652 11.1866C13.0942 11.1577 13.1106 11.1185 13.1108 11.0775V9.50499C13.1108 9.46388 13.0945 9.42446 13.0654 9.39539C13.0364 9.36632 12.997 9.34999 12.9558 9.34999H11.1908C11.15 9.34999 11.1107 9.36623 11.0818 9.39515C11.0529 9.42406 11.0367 9.46327 11.0367 9.50416V11.0775C11.0367 11.1625 11.105 11.2317 11.1908 11.2317ZM8.74918 11.2317H10.5158C10.5566 11.2314 10.5956 11.2151 10.6243 11.1862C10.6531 11.1573 10.6692 11.1182 10.6692 11.0775V9.50499C10.6693 9.48475 10.6654 9.46468 10.6578 9.44593C10.6501 9.42718 10.6389 9.41013 10.6246 9.39573C10.6104 9.38134 10.5934 9.36989 10.5748 9.36204C10.5561 9.3542 10.5361 9.3501 10.5158 9.34999H8.74918C8.70844 9.35021 8.66944 9.36655 8.64071 9.39544C8.61198 9.42433 8.59585 9.46341 8.59585 9.50416V11.0775C8.59585 11.1625 8.66501 11.2317 8.75001 11.2317M6.28001 11.2317H8.04585C8.08674 11.2317 8.12595 11.2154 8.15486 11.1865C8.18377 11.1576 8.20001 11.1184 8.20001 11.0775V9.50499C8.20012 9.48475 8.19625 9.46468 8.1886 9.44593C8.18095 9.42718 8.16969 9.41013 8.15545 9.39573C8.14121 9.38134 8.12428 9.36989 8.10562 9.36204C8.08695 9.3542 8.06693 9.3501 8.04668 9.34999H6.28001C6.23891 9.34999 6.19948 9.36632 6.17041 9.39539C6.14134 9.42446 6.12501 9.46388 6.12501 9.50499V11.0775C6.12501 11.1625 6.19501 11.2317 6.28001 11.2317ZM3.84668 11.2317H5.61335C5.65409 11.2314 5.69309 11.2151 5.72182 11.1862C5.75055 11.1573 5.76668 11.1182 5.76668 11.0775V9.50499C5.76679 9.48475 5.76291 9.46468 5.75527 9.44593C5.74762 9.42718 5.73636 9.41013 5.72212 9.39573C5.70788 9.38134 5.69094 9.36989 5.67228 9.36204C5.65362 9.3542 5.63359 9.3501 5.61335 9.34999H3.84668C3.80594 9.35021 3.76694 9.36655 3.73821 9.39544C3.70947 9.42433 3.69335 9.46341 3.69335 9.50416V11.0775C3.69335 11.1625 3.76085 11.2317 3.84668 11.2317ZM21.8025 10.2417C21.7483 10.1992 21.2425 9.81666 20.1742 9.81666C19.8925 9.81749 19.6108 9.84166 19.3325 9.88916C19.1258 8.47249 17.955 7.78082 17.9025 7.75082L17.6158 7.58499L17.4275 7.85749C17.1908 8.22249 17.0192 8.62582 16.9175 9.04916C16.7258 9.85749 16.8425 10.6175 17.2533 11.2667C16.7575 11.5433 15.9617 11.6108 15.8 11.6167H2.62585C2.46044 11.6169 2.30185 11.6826 2.18474 11.7994C2.06762 11.9162 2.00151 12.0746 2.00085 12.24C1.98542 13.394 2.18084 14.5412 2.57751 15.625C3.03168 16.815 3.70668 17.6917 4.58585 18.2283C5.56918 18.8308 7.16918 19.1758 8.98168 19.1758C9.80085 19.1783 10.6175 19.1042 11.4233 18.9542C12.5424 18.7486 13.6192 18.3574 14.6092 17.7967C15.4258 17.3242 16.1592 16.7233 16.7842 16.0167C17.8275 14.835 18.4492 13.5192 18.9117 12.35H19.0958C20.2392 12.35 20.9417 11.8925 21.3292 11.5092C21.5867 11.265 21.7875 10.9675 21.9183 10.6375L22 10.3975L21.8025 10.2417Z" fill="#2496ED"/>
</g>
<defs>
<clipPath id="clip0_1_1163">
<rect width="20" height="20" fill="white" transform="translate(2 2)"/>
</clipPath>
</defs>
</svg>
